<?xml version="1.0" encoding="UTF-8" standalone="no"?>
<!-- Created with Inkscape (http://www.inkscape.org/) -->

<svg
   xmlns:dc="http://purl.org/dc/elements/1.1/"
   xmlns:cc="http://creativecommons.org/ns#"
   xmlns:rdf="http://www.w3.org/1999/02/22-rdf-syntax-ns#"
   xmlns:svg="http://www.w3.org/2000/svg"
   xmlns="http://www.w3.org/2000/svg"
   xmlns:sodipodi="http://sodipodi.sourceforge.net/DTD/sodipodi-0.dtd"
   xmlns:inkscape="http://www.inkscape.org/namespaces/inkscape"
   version="1.1"
   id="svg2621"
   width="466.66666"
   height="102.66667"
   viewBox="0 0 466.66666 102.66667"
   sodipodi:docname="perfect.svg"
   inkscape:version="0.92.3 (2405546, 2018-03-11)"
   inkscape:export-filename="/home/tduponchelle/Pictures/cpan4.svg.png"
   inkscape:export-xdpi="96"
   inkscape:export-ydpi="96">
  <metadata
     id="metadata2627">
    <rdf:RDF>
      <cc:Work
         rdf:about="">
        <dc:format>image/svg+xml</dc:format>
        <dc:type
           rdf:resource="http://purl.org/dc/dcmitype/StillImage" />
        <dc:title></dc:title>
      </cc:Work>
    </rdf:RDF>
  </metadata>
  <defs
     id="defs2625" />
  <sodipodi:namedview
     pagecolor="#ffffff"
     bordercolor="#666666"
     borderopacity="1"
     objecttolerance="10"
     gridtolerance="10"
     guidetolerance="10"
     inkscape:pageopacity="0"
     inkscape:pageshadow="2"
     inkscape:window-width="3066"
     inkscape:window-height="1689"
     id="namedview2623"
     showgrid="false"
     inkscape:zoom="8"
     inkscape:cx="208.89257"
     inkscape:cy="58.671078"
     inkscape:window-x="134"
     inkscape:window-y="55"
     inkscape:window-maximized="1"
     inkscape:current-layer="svg2621"
     inkscape:pagecheckerboard="true"
     showborder="true" />
  <g
     id="g2647"
     transform="translate(0.21856,0.249775)">
    <path
       style="fill:#cecece;stroke-width:1.33333337"
       d="m 257.33333,101.15241 c -5.5,-0.46617 -15.59487,-1.02881 -22.43304,-1.250297 -14.15973,-0.458632 -16.23363,-1.846724 -16.23363,-10.865451 0,-3.931918 -0.51826,-5.036659 -2.36288,-5.036659 -1.29957,0 -4.59957,-1.843683 -7.33333,-4.097072 -5.55041,-4.575126 -6.30061,-8.388537 -2.63712,-13.405093 1.28333,-1.757317 2.93333,-4.161372 3.66667,-5.342343 6.43862,-10.368863 15.2566,-20.951143 30.75333,-36.906461 10.01961,-10.316115 19.08307,-19.9923753 20.14101,-21.5028026 2.67075,-3.8130274 4.11103,-3.44520137 6.21456,1.5871021 2.11722,5.0650709 5.52114,8.2587085 7.49936,7.0360975 3.22875,-1.995482 3.79788,1.017246 1.29515,6.85591 l -2.63501,6.147222 7.72101,8.147053 c 14.61329,15.419616 33.67725,39.122884 33.67725,41.872754 0,3.066667 -5.81949,8.274299 -9.24648,8.274299 -1.2211,0 -2.94018,-0.72 -3.82018,-1.6 -1.24444,-1.244444 -1.95575,-1.24425 -3.20087,8.7e-4 -1.24561,1.245605 -1.2154,2.66687 0.13611,6.404397 1.70082,4.70356 1.63009,4.913455 -3.39914,10.085751 L 290,102.83991 278.66666,102.41996 c -6.23333,-0.23098 -15.83333,-0.80137 -21.33333,-1.26755 z M 236.91726,76.553524 c 7.0292,-1.635382 14.70032,-2.0122 33.92924,-1.666667 l 24.84651,0.446479 -5.1518,-6 c -2.83348,-3.300001 -9.62217,-10.800001 -15.08595,-16.666668 l -9.93416,-10.666667 -3.76056,4.174278 c -2.06829,2.295852 -10.66054,10.030093 -19.09388,17.187204 -19.33785,16.411434 -18.15612,15.305186 -16.3494,15.305186 0.8345,0 5.6045,-0.950916 10.6,-2.113145 z M 89.462077,89.094362 C 74.122756,83.203783 65.727867,69.418358 66.967156,52.15498 68.007347,37.665069 74.647434,27.775304 87.333332,21.821531 92.816543,19.248139 96.13022,18.700714 106,18.737761 c 10.79199,0.04051 22.83755,1.436702 23.80772,2.75954 0.20278,0.276485 -0.005,4.4027 -0.46203,9.169367 -0.57529,6.001843 -1.13737,7.846721 -1.82801,6 C 123.56106,26.087029 119.76129,23.676703 105.83577,22.913086 88.364655,21.955043 78.30982,29.775896 76.102728,46.040036 72.692986,71.16655 90.969788,90.717235 114.56156,87.179429 121.33558,86.163603 128,80.670345 128,76.102566 c 0,-1.523077 0.88676,-2.20673 1.66503,-2.20673 1.55384,0 0.15576,10.502433 -1.7881,14.261363 -2.46751,4.771528 -26.87918,5.367072 -38.414853,0.937163 z M 371.10743,71.000002 c -10.88584,-11.55 -22.93831,-24.569771 -26.78327,-28.932823 l -6.99083,-7.932825 v 16.064988 c 0,8.835743 0.39383,20.723928 0.87516,26.41819 0.84257,9.967521 1.02883,10.4201 5,12.148982 3.88243,1.690244 3.4588,1.797689 -7.20849,1.82831 -9.99174,0.02868 -10.93875,-0.167009 -8,-1.65313 l 3.33333,-1.685663 0.35584,-34.294683 c 0.19572,-18.862074 0.85981,-34.294681 1.47577,-34.294681 1.04684,0 7.69891,6.989646 40.93369,43.011028 l 13.2347,14.344362 0.39268,-22.344362 c 0.49785,-28.328218 0.1148,-30.591944 -5.44867,-32.200496 -3.49411,-1.01024 -2.20205,-1.255117 7.05599,-1.337292 9.96638,-0.08847 10.93129,0.10272 8,1.58507 l -3.33334,1.685662 -0.35584,34.294683 c -0.19762,19.045838 -0.88684,34.294681 -1.55005,34.294681 -0.65681,0 -10.10081,-9.45 -20.98667,-21.000001 z M 157.03665,88.591064 C 159.95873,86.544361 160,86.070451 160,54.55773 V 22.600001 l -3.97836,-0.795672 c -8.47119,-1.694238 -2.18298,-2.442766 15.15777,-1.804328 l 16.95517,1.401041 5.50887,3.6246 C 197.57973,28.96411 198,30.144464 198,37.261201 c 0,12.415917 -7.17263,20.086168 -19.56735,20.924888 -3.90463,0.264216 -6.19932,0.141593 -5.09932,-0.272495 1.1,-0.414088 4.56277,-1.668551 7.69507,-2.787694 6.57945,-2.350798 9.64085,-7.030733 9.63328,-14.726352 -0.009,-9.544503 -8.71008,-18.446887 -17.08355,-17.479567 L 170,23.333334 169.64168,54.499948 c -0.37444,32.568845 -0.12947,34.151324 5.45514,35.238432 1.59675,0.310826 -2.48033,0.646847 -9.06017,0.746714 -11.18236,0.169722 -11.76988,0.04608 -9,-1.89403 z"
       id="path2659"
       inkscape:connector-curvature="0"
       sodipodi:nodetypes="cssscccsccscccsscccccccssccsccssssssscccssssssssscscssscssscsssccssscscssccsssccscsssc" />
    <path
       style="fill:#959595;stroke-width:1.33333337"
       d="m 248.1533,100.7045 c -28.92308,-1.756418 -29.48664,-1.978618 -29.48664,-11.626004 0,-3.971959 -0.51484,-5.078493 -2.36288,-5.078493 C 212.67562,84.000003 204,76.21654 204,72.961476 c 0,-1.904806 6.53684,-9.250049 19.789,-22.236262 16.99921,-16.65808 21.08753,-21.511125 29,-34.424493 6.09885,-9.9535112 9.88674,-14.882217 11.211,-14.5874813 1.1,0.2448237 1.87381,1.0880587 1.71958,1.8738553 -0.15422,0.7857967 0.89578,2.4931553 2.33334,3.79413 1.43756,1.3009749 2.61374,3.240216 2.61374,4.309425 0,1.069209 -2.97468,7.220903 -6.61041,13.670432 -6.46628,11.470733 -10.42873,21.968784 -6.48043,17.169117 0.96663,-1.175059 4.75751,-8.487095 8.42418,-16.248969 6.1135,-12.94152 9.11133,-16.9476742 11.15372,-14.905287 0.42462,0.424625 -0.23307,3.567143 -1.46154,6.983372 l -2.23358,6.211327 7.62592,8.048014 c 14.53732,15.341962 33.58214,39.032322 33.58214,41.773714 0,3.066667 -5.81949,8.274299 -9.24648,8.274299 -1.2211,0 -2.94018,-0.72 -3.82018,-1.6 -1.24444,-1.244444 -1.95575,-1.24425 -3.20087,8.7e-4 -1.24561,1.245605 -1.2154,2.66687 0.13611,6.404397 1.69941,4.69964 1.62725,4.915891 -3.3364,9.99913 -5.89631,6.038374 -3.53203,5.875874 -47.04554,3.233434 z M 237.73678,76.482558 c 7.758,-1.76567 14.25679,-2.048144 33.92139,-1.474408 18.06593,0.527094 24.08991,0.317162 23.41181,-0.815889 -0.50216,-0.839076 -7.48277,-8.539024 -15.51248,-17.110996 l -14.59945,-15.585406 -2.81236,3.872333 c -1.5468,2.129784 -10.01236,9.971328 -18.81236,17.425654 -8.8,7.454326 -16.57,14.075207 -17.26667,14.713071 -1.8459,1.690096 0.74108,1.46302 11.67012,-1.024359 z M 89.462077,89.094362 C 74.037979,83.171227 65.580752,68.979896 66.992667,51.390415 68.044563,38.285996 74.513231,28.34239 85.982524,22.199293 c 4.585509,-2.456055 7.543856,-2.865959 20.684146,-2.865959 8.43333,0 16.98333,0.461431 18.99999,1.025403 3.52171,0.984862 3.66667,1.37015 3.66667,9.745356 0,5.473777 0.36543,9.98208 -0.47154,9.464801 0.0842,-0.939361 -1.62723,-3.761672 -1.79738,-5.415164 -1.30373,-12.669003 -34.094462,-15.881164 -44.680227,-3.959905 -7.108412,8.005206 -8.83562,25.61331 -3.686544,37.58266 C 84.44408,81.134449 99.07086,89.294927 113.66856,87.287231 120.85857,86.298351 128,81.057181 128,76.769233 c 0,-1.156411 0.60709,-2.102564 1.34909,-2.102564 1.47348,0 0.39294,9.81923 -1.48454,13.49053 -2.43995,4.771164 -26.86631,5.367259 -38.402473,0.937163 z M 371.13909,71.000002 c -10.89324,-11.55 -22.95585,-24.569771 -26.80583,-28.932823 l -6.99993,-7.932825 0.0147,21.266158 c 0.0193,27.923637 0.56978,31.062997 5.85042,33.361772 3.89675,1.696338 3.48216,1.801882 -7.19844,1.83254 -9.99173,0.02868 -10.93874,-0.167009 -8,-1.65313 l 3.33334,-1.685663 0.35584,-34.294683 c 0.19573,-18.862074 0.85982,-34.294681 1.47578,-34.294681 1.06195,0 10.87206,10.324827 40.93667,43.084519 l 13.23172,14.41785 0.3794,-23.751184 c 0.20866,-13.063152 0.0511,-25.086004 -0.35027,-26.71745 -0.46797,-1.902409 -2.27776,-3.41344 -5.04607,-4.213083 -3.55178,-1.025952 -2.30878,-1.264636 7.01694,-1.347412 9.96638,-0.08847 10.93129,0.10272 8,1.58507 l -3.33334,1.685662 -0.35584,34.294683 c -0.19572,18.862074 -0.88309,34.294681 -1.5275,34.294681 -0.64442,0 -10.08432,-9.45 -20.97756,-21.000001 z M 157.03665,88.591064 C 159.95873,86.544361 160,86.070451 160,54.55773 V 22.600001 l -4.0463,-0.809259 c -7.40049,-1.480097 -2.93321,-2.098863 13.515,-1.871972 17.01015,0.234643 20.88559,1.246113 25.86778,6.751375 3.79504,4.193475 3.74552,17.018423 -0.0856,22.149698 -4.72071,6.322876 -9.26807,8.85534 -16.8183,9.366246 -3.90462,0.264216 -6.19932,0.141593 -5.09932,-0.272495 1.1,-0.414088 4.56278,-1.668551 7.69507,-2.787694 6.57945,-2.350798 9.64085,-7.030733 9.63328,-14.726352 -0.009,-9.544503 -8.71008,-18.446887 -17.08355,-17.479567 L 170,23.333334 169.64168,54.499948 c -0.37444,32.568845 -0.12947,34.151324 5.45514,35.238432 1.59675,0.310826 -2.48033,0.646847 -9.06017,0.746714 -11.18236,0.169722 -11.76988,0.04608 -9,-1.89403 z"
       id="path2657"
       inkscape:connector-curvature="0"
       sodipodi:nodetypes="ssssssscssscscscsssccssssscscsscssssscscsssssscscccsssccssscscssccsscccscssscssccccsssc" />
    <path
       style="fill:#6f6f6f;stroke-width:1.33333337"
       d="m 250.75682,100.64695 c -25.62606,-1.526901 -27.38702,-1.800908 -29.66666,-4.616147 -1.33292,-1.646089 -2.4235,-5.02642 -2.4235,-7.511845 0,-2.904738 -0.64296,-4.518955 -1.79994,-4.518955 -3.06871,0 -12.86672,-7.887901 -12.86672,-10.358369 0,-1.287902 9.01297,-11.334139 20.02881,-22.32497 16.69756,-16.659632 21.48111,-22.363856 28.76048,-34.295954 9.12557,-14.9582985 10.32784,-16.39039762 12.58753,-14.9938265 0.87211,0.5389856 0.33504,2.6451839 -1.46501,5.7453562 -2.70583,4.6601733 -2.71111,4.7348893 -0.11013,1.5610939 2.69166,-3.2845101 2.76013,-3.2945991 4.67466,-0.6888168 1.76918,2.4079222 1.40092,3.6604482 -4.11613,14.0000002 -3.33252,6.245516 -7.1792,13.23008 -8.54817,15.521254 -2.1616,3.617745 -2.23374,4.377653 -0.54838,5.776381 1.6334,1.355601 3.33819,-1.178279 10.76723,-16.003728 6.39636,-12.764622 9.22865,-17.212252 10.28696,-16.15394 1.05832,1.058311 0.79356,2.9392 -0.9616,6.83145 l -2.42201,5.371051 6.56332,7.006508 c 12.27014,13.098758 35.1691,40.757293 35.1691,42.479104 0,2.489736 -6.79333,9.194072 -9.31612,9.194072 -1.1828,0 -2.84512,-0.69457 -3.69404,-1.54349 -1.16909,-1.1691 -2.02504,-1.143839 -3.52876,0.104146 -1.75346,1.45524 -1.73032,2.182294 0.1982,6.226429 l 2.18347,4.578796 -5.19197,5.317062 c -5.9863,6.130528 -1.98284,5.834288 -44.56062,3.297338 z M 271,75.242888 c 13.75,0.486853 25,0.505549 25,0.04155 0,-0.464002 -6.15,-7.441853 -13.66667,-15.506337 -7.51667,-8.064483 -14.14648,-15.513662 -14.73292,-16.55373 -1.44945,-2.570659 -3.26336,-2.378447 -4.17399,0.4423 -0.4143,1.283333 -9.15474,9.521175 -19.42318,18.306315 -10.26846,8.785142 -18.66991,16.373854 -18.66991,16.863805 0,0.48995 4.65,-0.317408 10.33333,-1.794132 C 244.97256,74.62467 248.48576,74.44572 271,75.242892 Z M 234.83674,64.333335 c 1.6585,-2.114741 1.61134,-2.161901 -0.50341,-0.503406 -2.221,1.741825 -2.92731,2.83674 -1.82992,2.83674 0.27687,0 1.32687,-1.05 2.33333,-2.333334 z m 11.82992,-10.333333 c 1.72234,-1.833334 2.83151,-3.333334 2.46484,-3.333334 -0.36666,0 -2.07584,1.5 -3.79817,3.333334 -1.72233,1.833333 -2.83151,3.333333 -2.46484,3.333333 0.36667,0 2.07584,-1.5 3.79817,-3.333333 z m 24.77988,-15.441945 c -4.2425,-5.041941 -4.51512,-3.619071 -0.44654,2.330782 1.65,2.41295 3.20094,3.797238 3.44654,3.076194 0.2456,-0.721042 -1.1044,-3.154182 -3,-5.406976 z m -21.60397,-4.891389 c 1.16765,-2.628422 0.38865,-2.044994 -5.23864,3.923464 l -5.2706,5.590131 4.88441,-3.923464 c 2.68643,-2.157906 5.2176,-4.673465 5.62483,-5.590131 z m 6.86625,-11.666667 c 2.05152,-3.666667 3.11106,-6.066667 2.35454,-5.333334 -0.75654,0.733334 -3.05402,4.333334 -5.10552,8 -2.05152,3.666667 -3.11106,6.066667 -2.35454,5.333334 0.75654,-0.733333 3.05402,-4.333334 5.10552,-8 z M 92.231087,90.021287 C 80.5087,86.363036 72.626164,78.793437 68.798331,67.518816 62.756566,49.723211 70.261536,30.52722 86.666665,21.815719 c 3.693052,-1.961096 7.587511,-2.478553 18.666665,-2.480246 7.7,-0.0012 16.25,0.475049 19,1.058278 l 5,1.060418 -0.10526,8.939583 -0.10527,8.939583 -1.97995,-5.588977 c -2.67716,-7.557069 -9.75589,-11.077691 -22.27331,-11.077691 -19.823232,0 -29.131356,9.305481 -29.288097,29.279783 -0.09445,12.036047 3.206461,20.110279 11.158557,27.294519 12.483364,11.27797 36.08825,11.209363 40.18384,-0.116786 1.64483,-4.548674 4.44456,-6.360479 3.28243,-2.124176 -0.35205,1.283333 -1.00979,4.530672 -1.46164,7.216308 -0.66332,3.942479 -1.6229,5.162324 -4.98206,6.333333 -5.69074,1.983802 -24.491066,1.668774 -31.531483,-0.528357 z M 157,89.291787 c 2.99642,-1.204416 3,-1.244679 3,-33.804375 V 22.88889 l -3.66667,-1.339181 c -2.83704,-1.036175 -0.11213,-1.362999 12.04283,-1.444446 18.1629,-0.121706 23.51076,1.457638 27.58966,8.147837 3.49655,5.735038 3.40942,11.111335 -0.29916,18.458894 -3.52012,6.974164 -11.28524,11.969936 -18.33333,11.794937 l -4.66667,-0.115866 5.03915,-1.33724 c 2.77153,-0.735483 6.82153,-3.119626 9,-5.298095 3.28629,-3.286299 3.96085,-5.045182 3.96085,-10.327782 0,-11.030434 -7.6436,-19.162863 -17.33333,-18.441858 l -4.66667,0.347244 -0.41272,22.666667 c -0.22698,12.466668 -0.0261,27.012681 0.44627,32.324475 0.83845,9.426967 0.95985,9.687015 5.07939,10.87975 3.33864,0.966644 1.71325,1.229408 -7.7796,1.257677 -8.44719,0.02516 -11.1118,-0.321277 -9,-1.170116 z m 171,-0.350093 3.33333,-1.685663 0.35584,-34.294683 c 0.19572,-18.862074 0.82101,-34.294681 1.38956,-34.294681 0.92957,0 30.02418,30.927401 47.92126,50.940026 l 7,7.827443 V 51.638575 c 0,-27.607417 -0.43556,-29.612897 -6.66666,-30.69601 -1.83334,-0.318676 1.76666,-0.601314 8,-0.628082 6.46081,-0.02775 9.90024,0.3497 8,0.877926 l -3.33334,0.926593 -0.35584,34.273834 c -0.28546,27.494679 -0.70748,34.273834 -2.13362,34.273834 -1.42503,0 -34.34352,-34.185293 -50.715,-52.666669 l -3.54335,-4 0.37391,25.46384 c 0.39476,26.884111 0.89837,29.124927 6.80407,30.274539 1.59674,0.310826 -2.19683,0.638002 -8.43016,0.727058 -9.94302,0.142057 -10.92442,-0.04487 -8,-1.523744 z"
       id="path2655"
       inkscape:connector-curvature="0" />
    <path
       style="fill:#4d4d4d;stroke-width:1.33333337"
       d="M 277.33333,101.84247 C 275.5,101.60892 262.6,100.80766 248.66666,100.0619 225.34126,98.813449 223.14838,98.48135 221,95.871944 c -1.34971,-1.639329 -2.33334,-5.053233 -2.33334,-8.098342 0,-3.364666 -0.50938,-4.949491 -1.41162,-4.391878 -1.92272,1.188308 -11.63604,-5.714507 -12.68302,-9.01325 -0.67738,-2.134254 3.34832,-6.910448 20.38115,-24.180691 17.33053,-17.572099 22.65519,-23.916526 29.018,-34.575485 8.16791,-13.6828254 9.54892,-15.31261708 11.37961,-13.4294549 0.61514,0.6327697 -3.01716,8.0504909 -8.07176,16.4838239 -8.02033,13.381497 -11.54052,17.624621 -27.65406,33.333335 -10.15515,9.9 -15.12514,14.964902 -11.04443,11.255336 6.19277,-5.629543 20.70189,-19.124722 29.30777,-27.25967 1.1662,-1.102383 5.6319,-8.152383 9.92379,-15.666667 4.29188,-7.514284 8.12377,-13.6623341 8.51533,-13.6623341 1.58938,0 4.04823,4.7519171 3.10272,5.9962201 -3.81698,5.023234 -16.07461,30.526789 -14.99316,31.195168 0.72587,0.44861 -7.64974,8.764072 -18.61248,18.478802 -10.96273,9.714729 -19.458,17.640092 -18.87837,17.611918 0.57963,-0.02817 4.05387,-2.759534 7.72053,-6.069682 3.66667,-3.310149 12.5381,-11.138435 19.7143,-17.396191 12.80957,-11.170155 13.20662,-11.695022 21.76204,-28.768278 5.69008,-11.355166 9.16782,-16.937136 10.02086,-16.084086 0.85306,0.853051 0.54102,3.219484 -0.89912,6.818724 l -2.20557,5.512271 8.62904,9.6859 c 16.2536,18.244314 32.97845,38.660555 32.97845,40.25722 0,0.878041 -1.78872,3.310143 -3.97493,5.404668 -3.49355,3.347034 -4.37975,3.623787 -7.31753,2.285239 C 300.50926,80.289212 296,80.596707 296,82.097419 c 0,0.263328 1.01461,2.606457 2.2547,5.206952 l 2.25471,4.728173 -5.19197,5.317063 c -5.31206,5.440043 -7.08068,5.881893 -17.98411,4.492863 z M 238.92642,76.510017 c 5.90142,-1.459772 13.10504,-1.679115 32.33334,-0.984512 C 284.86689,76.017048 296,75.962125 296,75.403454 c 0,-1.188013 -29.15823,-33.193875 -30.83056,-33.841519 -0.62215,-0.240936 -1.80622,0.959064 -2.63127,2.666666 -0.82505,1.707604 -6.68367,7.46807 -13.01913,12.801036 -6.33547,5.332965 -14.81904,12.686676 -18.85238,16.341579 -8.17613,7.409003 -8.50228,7.28506 8.25976,3.138801 z m 33.40292,-37.2528 c -2.01446,-2.524678 -3.85272,-4.020244 -4.085,-3.323476 -0.59997,1.799767 5.2845,9.43614 6.63038,8.604342 0.61452,-0.379796 -0.5309,-2.756186 -2.54538,-5.280866 z m 9.00399,-0.986618 c 0,-0.217839 -2.55,-2.767839 -5.66667,-5.666667 L 270,27.333334 l 5.2706,5.666667 c 4.9016,5.269944 6.06273,6.279367 6.06273,5.270598 z M 95.333332,90.759482 C 67.385563,83.999212 57.216213,49.861975 77.055171,29.401985 86.766685,19.386466 100.23493,16.539813 120.89078,20.136874 l 8.44255,1.470207 -0.10526,8.863127 -0.10527,8.863127 -2.05437,-5.812258 c -1.71988,-4.865872 -3.04373,-6.249892 -8.13047,-8.5 -6.94703,-3.073002 -19.80036,-3.596716 -27.32498,-1.113368 -9.749635,3.217669 -16.946314,15.639102 -16.946314,29.249253 0,6.852601 3.910829,16.925534 8.779889,22.613936 7.342952,8.578589 13.903701,11.494538 25.945415,11.531534 11.70901,0.03597 16.54566,-2.281161 17.93144,-8.590584 1.37714,-6.270079 3.1253,-4.76945 1.88896,1.621488 -0.60293,3.116667 -1.12237,6.388464 -1.1543,7.270662 -0.13285,3.669457 -21.91631,5.769928 -32.724738,3.155484 z m 61.469548,-1.394778 c 2.07948,-0.840528 3.02582,-2.759453 3.66666,-7.434913 1.32788,-9.687919 1.02374,-53.33551 -0.3977,-57.074176 -0.70458,-1.853158 -2.61766,-3.577238 -4.33334,-3.905224 -1.6895,-0.322981 4.12816,-0.668016 12.92816,-0.766742 18.89079,-0.211936 23.87095,1.490028 27.78194,9.494441 6.20454,12.698521 -5.03583,29.10084 -19.78194,28.866427 -3.4716,-0.05519 -3.17452,-0.317594 2.24894,-1.986456 8.38401,-2.579854 11.75106,-7.044162 11.75106,-15.580493 0,-11.711052 -7.12582,-19.066939 -17.50856,-18.073838 l -4.49144,0.429604 -0.35997,28.377625 c -0.41624,32.81203 0.16124,36.589811 5.77779,37.797957 2.20694,0.474726 -1.32079,0.874206 -8.08448,0.915486 -7.82924,0.04779 -11.02583,-0.32053 -9.19712,-1.059698 z M 328.33333,89.116962 332,87.77778 V 53.111112 c 0,-20.682995 0.49778,-34.487389 1.23405,-34.222222 0.67872,0.244444 10.36967,10.344444 21.53544,22.444445 27.04253,29.305171 33.31509,36.000001 33.72933,36.000001 1.02264,0 -1.01031,-52.916657 -2.08429,-54.25329 -0.70118,-0.872641 -2.58128,-1.840932 -4.17803,-2.151756 -1.59675,-0.310825 1.89683,-0.587039 7.76349,-0.613807 6.21364,-0.02835 9.2751,0.338156 7.33334,0.877926 l -3.33334,0.926593 -0.35584,34.273834 c -0.19572,18.850609 -0.82536,34.273834 -1.39921,34.273834 -1.25896,0 -30.33732,-29.544113 -44.61868,-45.333335 l -10.251,-11.333334 -0.0209,22.833334 c -0.0263,28.58354 0.37301,30.807741 5.81343,32.385092 3.29468,0.955233 1.79609,1.210875 -7.16774,1.222728 -9.12169,0.012 -10.6178,-0.246345 -7.66666,-1.324193 z"
       id="path2653"
       inkscape:connector-curvature="0" />
    <path
       style="fill:#2b2b2b;stroke-width:1.33333337"
       d="m 282,101.98891 c -0.73334,-0.25698 -14.21703,-1.14711 -29.96378,-1.97806 -15.74674,-0.830948 -29.36582,-2.121127 -30.26461,-2.867062 -0.8988,-0.745934 -1.81511,-4.155346 -2.03623,-7.57647 -0.35882,-5.551438 -0.78521,-6.292643 -3.9657,-6.89377 -3.98234,-0.752675 -11.75092,-7.125843 -11.80415,-9.683831 -0.0189,-0.911009 8.90661,-10.356382 19.83457,-20.989715 17.38284,-16.914165 21.07431,-21.293696 29.50128,-35.000001 8.759,-14.2463364 12.03195,-18.1294404 12.03195,-14.2749678 0,3.0511041 -18.01539,32.2759908 -21.87611,35.4878078 -6.45538,5.370384 -34.02144,32.45498 -33.02062,32.4439 0.4932,-0.0055 9.56112,-8.121515 20.15092,-18.035677 17.33822,-16.232016 20.06497,-19.415131 27.40198,-31.988095 6.33156,-10.8500136 8.50399,-13.6061357 9.7458,-12.3643259 0.87892,0.8789131 1.59803,2.1041469 1.59803,2.7227429 0,0.618595 -3.63264,7.780828 -8.07253,15.916072 -4.43988,8.135246 -7.76599,15.590175 -7.39134,16.566511 0.41312,1.076556 -6.7733,8.403237 -18.2608,18.617202 -10.4181,9.263126 -19.17096,17.532073 -19.4508,18.375438 -0.27984,0.843367 1.22016,-0.0013 3.33334,-1.877004 2.11317,-1.875719 11.64213,-10.332461 21.17546,-18.792762 L 258,44.41448 266.66666,27.424758 c 6.09774,-11.953711 8.79788,-16.127427 9.10932,-14.080646 0.24347,1.599991 -0.25476,4.592807 -1.10717,6.650702 -1.48859,3.593775 -1.01412,4.365912 12.00708,19.540074 7.45631,8.689146 16.91713,19.902871 21.02407,24.919389 8.04857,9.831121 8.14394,10.885787 1.43725,15.893058 -2.75336,2.055681 -3.90037,2.218197 -6.6888,0.947708 -2.95476,-1.346283 -4.12081,-1.001087 -9.55344,2.828182 -3.40335,2.398896 -5.93153,4.617994 -5.6182,4.931326 0.31333,0.313333 2.33675,-0.688559 4.49648,-2.226424 4.21164,-2.998954 5.69644,-2.342976 7.4138,3.275388 0.64427,2.107699 -0.41884,3.94116 -4.4454,7.666667 -4.78201,4.424498 -8.57279,5.679608 -12.74165,4.218728 z M 236.66666,77.532631 c 9.1187,-2.093329 14.21691,-2.333843 35.13032,-1.657326 13.455,0.435251 24.66675,0.460555 24.91499,0.05623 0.24824,-0.404323 -6.03356,-7.670291 -13.95956,-16.146597 -7.92599,-8.476304 -15.12256,-16.545494 -15.99237,-17.931534 -1.31456,-2.094733 -1.70696,-2.18251 -2.32492,-0.52007 -0.97326,2.618284 -14.74202,15.61561 -28.95567,27.333334 C 224.96769,77.332567 222.4861,80.01414 225,79.990657 c 0.55,-0.0052 5.8,-1.111252 11.66666,-2.45803 z M 304,78.206653 c 0,-0.253009 -1.35,-1.603009 -3,-3 l -3,-2.539984 2.53998,3 C 302.92694,78.485929 304,79.273657 304,78.206653 Z m -5.33334,-6.611761 c 0,-0.222811 -2.25,-2.472811 -5,-5.000001 l -5,-4.594889 4.5949,5 c 4.27681,4.653892 5.4051,5.61305 5.4051,4.59489 z M 282.25294,53.590144 C 278.81382,50.09852 276,46.339682 276,45.237171 c 0,-2.575172 -7.45287,-11.518106 -8.63482,-10.36119 -1.5407,1.508083 18.9559,27.025376 20.55443,25.589278 0.32245,-0.289689 -2.22755,-3.38349 -5.66667,-6.875115 z M 279.8649,36.333335 c -8.08154,-8.619018 -12.24746,-11.491584 -5.46845,-3.770709 4.36005,4.965815 11.118,11.314266 12.13029,11.395241 0.28971,0.02317 -2.70812,-3.407866 -6.66184,-7.624532 z M 96.458327,90.611448 C 84.226951,88.191558 72.814978,78.940509 69.191326,68.507613 66.125338,59.680294 66.958582,45.751004 71.025828,37.840349 79.149436,22.04021 94.563039,16.250383 118.56307,19.983886 l 10.77026,1.675447 -0.10144,8.170333 c -0.0999,8.046026 -0.12623,8.101826 -1.73045,3.667551 -2.22728,-6.156493 -6.23303,-9.044834 -15.09566,-10.884708 -14.376039,-2.984455 -27.907059,2.068744 -34.001401,12.697924 -4.347367,7.582267 -4.40642,25.452645 -0.1108,33.527187 3.796685,7.136674 13.47995,15.606289 20.115536,17.59436 12.639795,3.786974 25.566535,0.797115 29.034225,-6.7154 l 2.02326,-4.383244 -0.80155,6 c -0.44085,3.3 -1.29748,6.496642 -1.90361,7.103648 -3.17562,3.18017 -19.35245,4.340974 -30.303113,2.174464 z m 60.352403,-1.249649 c 3.98345,-1.60974 4.5226,-5.973742 4.5226,-36.606957 0,-28.162133 -0.42756,-30.435024 -6,-31.895411 -1.46667,-0.384373 4.83333,-0.565057 14,-0.40152 18.38315,0.327966 23.25833,1.840227 26.70717,8.284451 2.64094,4.934618 2.07415,14.347146 -1.18038,19.602933 -3.40667,5.501435 -8.86032,8.703592 -16.31524,9.579618 -5.27608,0.61999 -5.41696,0.570476 -1.37528,-0.483368 6.7495,-1.759902 11.27664,-5.726178 13.40328,-11.742754 1.71342,-4.847568 1.6642,-6.026647 -0.48672,-11.658758 -2.89847,-7.589504 -8.34608,-11.36128 -16.4195,-11.368382 L 168,22.666667 v 31.078495 c 0,32.567819 0.34956,34.664478 6,35.987693 1.46666,0.343463 -2.43334,0.656047 -8.66667,0.694631 -7.49076,0.04637 -10.38035,-0.314954 -8.5226,-1.065687 z M 328,89.474748 331.33333,88.548642 332,54.27197 c 0.36666,-18.85217 1.13412,-34.291728 1.70544,-34.310128 0.57133,-0.0184 12.81092,12.732658 27.19909,28.335685 14.38816,15.603028 26.68353,28.573415 27.32304,28.823085 1.55692,0.607829 -0.23302,-52.001373 -1.83863,-54.040566 -0.68709,-0.872641 -2.55569,-1.840932 -4.15244,-2.151756 -1.59675,-0.310825 1.89683,-0.587039 7.76349,-0.613807 6.21331,-0.02835 9.27499,0.338168 7.33334,0.877882 l -3.33334,0.926549 -0.35726,33.231138 c -0.1965,18.277126 -0.85316,33.727039 -1.45926,34.333139 -1.14909,1.149087 -30.50208,-28.560736 -45.51681,-46.070138 -4.76666,-5.55864 -9.09164,-10.145565 -9.61105,-10.193168 -1.25409,-0.114933 0.35909,49.092824 1.73132,52.811303 0.58816,1.593818 2.45172,3.162108 4.14123,3.485091 1.6895,0.322981 -1.72816,0.60914 -7.59483,0.635908 -6.20984,0.02833 -9.27391,-0.338284 -7.33333,-0.877439 z"
       id="path2651"
       inkscape:connector-curvature="0" />
    <path
       style="fill:#030303;stroke-width:1.33333337"
       d="m 254.95006,100.13446 c -35.90858,-2.371497 -34.89444,-2.028862 -34.92965,-11.801124 -0.0175,-4.857479 -0.41941,-5.666667 -2.81459,-5.666667 -3.29517,0 -9.99697,-4.495548 -11.84246,-7.943897 -1.09456,-2.045198 1.89622,-5.585434 19.0909,-22.598184 17.7505,-17.562687 21.58292,-22.147612 29.61704,-35.432387 5.07554,-8.3926262 9.7228,-14.7647564 10.32727,-14.1602895 0.60447,0.604467 -2.98792,7.9321065 -7.98311,16.2836435 -8.25394,13.799955 -10.88622,16.883213 -28.86638,33.812 -10.88135,10.245063 -19.08826,18.859391 -18.23758,19.142951 0.85068,0.28356 6.46655,-4.198802 12.47971,-9.960804 6.01316,-5.762002 14.90553,-14.224188 19.76083,-18.804859 6.3273,-5.969415 10.967,-12.106585 16.37996,-21.666668 4.15368,-7.335996 8.0828,-13.3381747 8.73138,-13.3381747 3.3407,0 2.04099,4.0885257 -5.99809,18.8683837 -5.55291,10.209031 -8.28976,16.539664 -7.39064,17.095349 0.82579,0.510367 -2.08569,3.936841 -6.90471,8.126041 -20.66621,17.965255 -31.80092,28.257039 -31.21032,28.847634 0.97014,0.970127 3.8578,-0.998497 11.15402,-7.604072 3.64502,-3.3 12.15496,-10.800001 18.91096,-16.666667 11.86077,-10.299469 12.58766,-11.263366 21.11514,-28.000001 5.0251,-9.862567 9.04483,-16.366233 9.32642,-15.08951 0.27218,1.234102 -0.4965,4.160967 -1.7082,6.504141 l -2.2031,4.260319 7.29103,7.495859 c 4.01007,4.122722 13.67256,15.171586 21.47221,24.553033 12.34307,14.846271 13.99559,17.403974 12.74927,19.732738 -2.14223,4.0028 -7.53197,6.102639 -10.65608,4.1516 -2.11057,-1.318069 -3.4942,-0.922087 -8.43912,2.415197 -3.70889,2.503099 -6.83285,3.693403 -8.37675,3.191744 -1.86822,-0.607038 -2.01888,-0.484016 -0.6246,0.510032 1.01062,0.720522 1.4252,1.977122 0.92131,2.792445 -1.59299,2.577501 2.71848,1.603317 5.2412,-1.184263 2.76561,-3.055966 5.41473,-3.448364 6.3756,-0.944382 0.36349,0.947257 -1.72831,3.728146 -4.64845,6.179754 l -5.30935,4.45747 -29.27071,-1.673499 c -16.09889,-0.920424 -29.54314,-1.401072 -29.8761,-1.068106 -0.63115,0.63114 46.5741,3.759946 56.30044,3.731643 3.06429,-0.0089 6.38296,-0.766213 7.37484,-1.68288 6.06421,-5.604409 7.48668,-5.970513 2.44278,-0.628709 -3.26934,3.462457 -6.26934,6.206836 -6.66666,6.098616 -0.39731,-0.10822 -15.29486,-1.15917 -33.10566,-2.33545 z m 1.38327,-15.742101 c -1.65,-0.317804 -4.35,-0.317804 -6,0 -1.65,0.317804 -0.3,0.577825 3,0.577825 3.3,0 4.65,-0.260021 3,-0.577825 z m -28,-1.275398 c -0.91667,-0.369882 -2.41667,-0.369882 -3.33333,0 -0.91667,0.369884 -0.16667,0.672515 1.66666,0.672515 1.83334,0 2.58334,-0.302631 1.66667,-0.672515 z m 66.29832,-4.377369 3.29833,-2.53445 -6.63166,-7.392814 C 287.65092,64.746279 280.46666,56.644754 275.33333,50.808936 270.2,44.973119 265.56541,40.153729 265.03424,40.099181 c -0.53118,-0.05455 -1.83022,1.55082 -2.88678,3.567487 -1.05654,2.016667 -10.06536,10.566667 -20.01958,19.000001 -9.95422,8.433333 -18.10516,15.66468 -18.11323,16.06966 -0.008,0.404979 8.51485,0.884487 18.93981,1.065572 10.42495,0.181087 19.22495,0.59974 19.55555,0.930342 0.3306,0.330601 6.95109,0.587752 14.71221,0.571445 11.79043,-0.02477 14.65355,-0.446456 17.40943,-2.564096 z m 5.81213,-5.958679 c -3.54408,-3.9705 -10.54477,-11.745298 -15.55709,-17.27733 -5.01231,-5.532032 -8.82124,-10.533442 -8.46427,-11.114244 0.35696,-0.580803 -1.3579,-3.44408 -3.8108,-6.36284 -3.66132,-4.356671 -4.6137,-4.905845 -5.31925,-3.067227 -1.14849,2.992936 6.57699,12.708246 28.61473,35.984945 10.17672,10.748856 13.80167,12.216431 4.53668,1.836696 z m 6.39307,-5.780911 c -1.69823,-3.152459 -26.75339,-31.997469 -32.13868,-37.000001 -7.91424,-7.351723 -3.82384,0.03755 5.30985,9.592179 4.77108,4.990968 12.77502,13.724488 17.78652,19.407822 9.13508,10.359678 11.38652,12.351598 9.04231,8 z M 90.238577,88.609712 C 82.154459,85.643977 75.126884,79.206447 71.190648,71.161069 62.337034,53.064931 70.060959,30.2236 87.68372,22.387453 c 6.158404,-2.738398 20.11888,-3.436952 34.00757,-1.70167 7.3818,0.922298 7.66789,1.102207 7.10964,4.470926 -0.31991,1.930477 -0.63099,4.305993 -0.69129,5.278925 -0.0603,0.972932 -1.60127,-0.0037 -3.42437,-2.170361 -3.65986,-4.349502 -11.51183,-6.931939 -21.07673,-6.931939 -18.064177,0 -28.900972,11.643583 -28.928849,31.082568 -0.0306,21.334503 14.952974,36.292756 35.780229,35.719774 10.04397,-0.276321 12.74523,-1.470444 16.33434,-7.220769 l 2.65157,-4.248238 -0.84684,4 c -1.60941,7.601922 -2.03268,8.381974 -4.97648,9.171167 -5.59585,1.50017 -28.21527,0.66805 -33.383933,-1.228124 z m 69.925753,-1.696509 c 0.64295,-1.697739 1.169,-16.631594 1.169,-33.186344 0,-25.315742 -0.32032,-30.334817 -2.01543,-31.579868 -1.53353,-1.12638 0.61836,-1.463657 9,-1.410618 19.00739,0.12028 19.59527,0.243473 24.4821,5.130295 3.91161,3.911606 4.53265,5.420206 4.52834,11 -0.003,4.098524 -0.97525,8.058029 -2.65448,10.812187 -2.53193,4.152707 -9.85628,9.69839 -12.67386,9.596112 -0.73334,-0.02661 0.30912,-0.939587 2.31657,-2.028816 9.16855,-4.974799 10.20533,-19.517734 2.01479,-28.261131 C 183.09729,23.532659 174.44289,20.801471 170.6011,22.020807 168.11758,22.809046 168,24.28465 168,54.66128 c 0,24.626771 0.39896,32.213872 1.7658,33.580716 1.46552,1.465515 0.69986,1.76514 -4.50232,1.761904 -5.9997,-0.0037 -6.21807,-0.136097 -5.09915,-3.090697 z m 170.92704,1.245005 c 1.07671,-1.295109 1.78629,-12.45612 2.24196,-35.263153 L 334,19.526741 361.17898,49.096704 c 14.94844,16.263481 27.49309,29.569965 27.87701,29.569965 0.95803,0 -0.73042,-52.266813 -1.77652,-54.992878 -0.46192,-1.203758 -1.83877,-2.385572 -3.05966,-2.62625 -1.2209,-0.24068 1.2314,-0.491871 5.44956,-0.558203 6.54161,-0.102867 7.32585,0.130267 5.33333,1.585417 -2.08652,1.523795 -2.40725,5.299031 -3.00271,35.344204 l -0.66666,33.638184 -18.12224,-19.195238 c -9.96723,-10.55738 -21.88584,-23.395237 -26.4858,-28.52857 -4.59997,-5.133334 -8.98051,-9.56185 -9.73453,-9.841147 -1.68766,-0.625112 -0.001,50.040157 1.77582,53.361189 0.98868,1.847359 0.33426,2.285613 -4.03522,2.70231 -4.3871,0.418376 -4.96512,0.196455 -3.63999,-1.397479 z M 174.33333,57.783627 c 0.91667,-0.369882 2.41667,-0.369882 3.33333,0 0.91667,0.369884 0.16667,0.672515 -1.66666,0.672515 -1.83334,0 -2.58334,-0.302631 -1.66667,-0.672515 z"
       id="path2649"
       inkscape:connector-curvature="0" />
  </g>
  <path
     style="fill:#000000;stroke:none;stroke-width:0.015625;fill-opacity:0"
     d="m 192.89645,24.364163 c -0.50778,-0.411136 -1.20815,-0.887535 -1.83594,-1.248821 -0.25974,-0.149483 -0.88545,-0.467621 -1.17968,-0.59981 -2.05241,-0.922063 -4.643,-1.505498 -8.1875,-1.843933 -0.18047,-0.01723 -0.34922,-0.03395 -0.375,-0.03715 -0.12034,-0.01495 0.20975,-0.0079 0.96875,0.02066 0.45546,0.01715 1.59804,0.05924 2.53906,0.09355 0.94101,0.0343 1.89726,0.06956 2.125,0.07835 0.22773,0.0088 0.8957,0.03365 1.48437,0.05525 l 1.07032,0.03926 1.77343,1.773085 c 0.97538,0.975196 1.7664,1.772563 1.75781,1.771925 -0.009,-6.38e-4 -0.0719,-0.0467 -0.14062,-0.102368 z"
     id="path236"
     inkscape:connector-curvature="0" />
  <g
     id="g330">
    <path
       inkscape:connector-curvature="0"
       id="path238"
       d="m 192.89645,24.364163 c -0.50778,-0.411136 -1.20815,-0.887535 -1.83594,-1.248821 -0.25974,-0.149483 -0.88545,-0.467621 -1.17968,-0.59981 -2.05241,-0.922063 -4.643,-1.505498 -8.1875,-1.843933 -0.18047,-0.01723 -0.34922,-0.03395 -0.375,-0.03715 -0.12034,-0.01495 0.20975,-0.0079 0.96875,0.02066 0.45546,0.01715 1.4496,0.15299 2.39062,0.1873 0.94753,0.07955 1.42385,0.13014 1.69531,0.156475 0.23555,0.05958 0.75508,0.131311 1.57031,0.340406 0.52941,0.145445 0.98569,0.346486 1.29689,0.496292 l 1.9453,0.960585 c 0.97538,0.975196 1.86015,1.671 1.85156,1.670362 -0.009,-6.38e-4 -0.0719,-0.0467 -0.14062,-0.102368 z"
       style="fill:#a0a0a0;stroke:none;stroke-width:0.015625"
       sodipodi:nodetypes="cccccccccccccc" />
  </g>
</svg>
